<?xml version="1.0" standalone="no"?>
<!DOCTYPE svg PUBLIC "-//W3C//DTD SVG 20010904//EN"
 "http://www.w3.org/TR/2001/REC-SVG-20010904/DTD/svg10.dtd">
<svg version="1.0" xmlns="http://www.w3.org/2000/svg"
 width="1000.000000pt" height="1000.000000pt" viewBox="0 0 1000.000000 1000.000000"
 preserveAspectRatio="xMidYMid meet">
<metadata>
Created by potrace 1.14, written by Peter Selinger 2001-2017
</metadata>
<g transform="translate(0.000000,1000.000000) scale(0.100000,-0.100000)"
fill="#000000" stroke="none">
<path d="M3888 9485 c-2 -2 -78 -7 -168 -10 -91 -4 -187 -8 -215 -10 -71 -4
-244 -16 -285 -20 -19 -2 -75 -6 -125 -10 -49 -4 -103 -9 -120 -11 -16 -2 -59
-6 -95 -9 -36 -3 -76 -8 -90 -10 -14 -2 -50 -7 -80 -10 -60 -6 -200 -24 -240
-30 -14 -2 -101 -16 -195 -30 -93 -14 -178 -28 -188 -31 -10 -3 -32 -7 -50
-10 -18 -2 -43 -6 -57 -9 -26 -5 -159 -32 -195 -39 -60 -13 -336 -79 -402 -96
-43 -12 -85 -23 -93 -25 -14 -3 -127 -37 -285 -85 -38 -11 -77 -24 -85 -27 -8
-3 -19 -7 -25 -9 -17 -4 -209 -74 -212 -78 -2 -1 34 -3 79 -3 91 0 476 -12
578 -17 36 -2 128 -7 205 -11 77 -4 156 -9 175 -10 19 -2 80 -6 135 -10 55 -3
118 -8 140 -10 22 -2 72 -7 110 -10 128 -10 200 -16 240 -21 22 -2 65 -6 95
-9 30 -3 78 -7 105 -10 28 -3 66 -7 85 -9 65 -7 155 -17 189 -22 18 -2 59 -7
90 -10 31 -3 67 -7 81 -9 14 -2 63 -9 110 -15 47 -6 99 -12 115 -15 17 -2 68
-9 115 -15 47 -6 101 -13 120 -16 50 -7 257 -39 440 -69 84 -13 327 -56 340
-60 8 -2 33 -6 55 -10 57 -8 270 -50 486 -96 102 -22 195 -41 205 -43 59 -12
384 -90 469 -112 55 -14 107 -27 115 -29 64 -13 359 -95 555 -153 1025 -305
1909 -674 2665 -1115 164 -95 392 -237 472 -293 26 -19 51 -34 54 -34 3 0 20
-11 36 -25 17 -14 32 -25 33 -23 3 3 12 117 20 248 7 105 15 275 20 430 3 80
7 199 10 265 3 66 7 217 10 335 3 118 8 283 10 365 2 83 7 257 10 387 l6 237
-23 6 c-82 19 -433 93 -518 109 -14 2 -72 13 -130 25 -141 28 -229 43 -590
106 -14 2 -43 7 -65 10 -22 3 -51 8 -65 11 -54 10 -67 12 -115 19 -27 4 -59 9
-70 10 -27 5 -79 12 -140 20 -27 4 -59 9 -70 11 -24 5 -131 21 -200 29 -27 4
-61 8 -75 10 -14 3 -41 7 -60 9 -45 7 -428 53 -500 61 -30 3 -71 8 -90 10 -19
3 -64 7 -100 10 -36 3 -76 7 -90 10 -14 2 -56 6 -95 10 -38 3 -86 8 -105 10
-33 4 -218 20 -355 30 -166 13 -201 16 -277 20 -46 3 -112 7 -148 10 -36 2
-128 7 -205 11 -77 4 -171 8 -210 11 -92 5 -1272 12 -1277 8z"/>
<path d="M1049 8065 c-2 -1 -62 -6 -134 -9 -201 -9 -308 -16 -333 -22 l-24 -5
6 -247 c4 -136 8 -267 10 -292 3 -25 7 -85 11 -135 3 -49 8 -106 10 -125 2
-19 7 -73 10 -120 4 -46 8 -87 10 -90 2 -3 6 -41 10 -85 4 -44 9 -82 10 -85 2
-3 6 -34 10 -70 3 -36 8 -72 10 -80 3 -8 7 -35 10 -60 5 -39 46 -289 60 -360
7 -38 65 -323 70 -340 16 -68 35 -152 39 -171 44 -230 278 -980 381 -1224 7
-16 29 -73 50 -125 35 -86 67 -162 166 -380 56 -123 212 -426 288 -559 39 -69
71 -126 71 -128 0 -8 225 -356 303 -468 127 -183 370 -499 427 -555 3 -3 39
-43 80 -90 199 -226 554 -574 695 -681 17 -13 32 -26 35 -30 3 -4 46 -39 95
-78 50 -40 97 -77 105 -84 24 -19 259 -189 330 -238 281 -195 764 -466 1067
-598 l73 -32 37 24 c21 13 67 38 103 57 109 57 154 81 170 90 8 5 78 44 155
86 275 152 578 345 825 524 115 82 347 262 385 297 11 10 41 35 67 56 26 21
53 43 60 50 7 7 49 43 93 82 230 201 595 572 740 752 11 14 29 35 39 47 77 86
334 423 416 543 282 412 470 743 683 1203 14 30 39 88 56 128 l30 73 -97 62
c-97 63 -206 130 -285 176 -23 13 -55 32 -72 42 -189 111 -631 342 -815 427
-36 16 -99 45 -140 65 -188 87 -496 215 -705 291 -55 21 -109 41 -120 46 -26
12 -412 140 -540 179 -92 28 -373 105 -420 116 -11 2 -85 20 -165 39 -80 19
-158 37 -175 39 -16 3 -88 17 -160 32 -71 14 -145 27 -162 30 -18 2 -50 7 -70
11 -21 4 -47 8 -57 10 -11 2 -54 8 -96 14 -42 6 -86 12 -97 14 -11 2 -46 7
-79 10 -32 4 -97 11 -144 16 -47 5 -121 12 -165 16 -44 3 -100 8 -125 10 -25
2 -168 7 -317 10 -212 5 -273 4 -273 -6 0 -15 114 -300 234 -584 134 -315 245
-576 261 -611 8 -16 114 -262 236 -545 371 -862 482 -1112 454 -1025 -20 61
-66 256 -79 332 -31 183 -39 371 -22 523 10 89 50 207 97 285 123 205 392 269
757 179 283 -70 646 -231 1050 -468 29 -17 68 -40 87 -51 31 -18 305 -190 328
-206 20 -14 -358 -523 -586 -789 -202 -236 -484 -517 -687 -686 -104 -86 -323
-242 -410 -292 -112 -64 -163 -91 -228 -122 l-72 -34 -68 33 c-273 134 -686
432 -986 711 -388 361 -716 761 -1002 1225 -44 72 -84 137 -87 145 -4 8 -17
31 -28 50 -94 154 -275 536 -376 795 -115 293 -249 732 -297 970 -3 11 -13 61
-25 110 -17 78 -47 239 -56 300 -2 11 -10 63 -18 115 -24 147 -32 208 -52 400
-3 30 -8 71 -10 90 -4 32 -7 76 -20 282 -3 42 -2 79 3 82 57 35 872 42 1442
11 41 -2 134 -7 205 -10 167 -8 262 -13 355 -20 41 -3 111 -7 155 -10 174 -11
316 -22 385 -30 19 -2 79 -7 132 -10 54 -4 110 -8 125 -10 16 -2 62 -6 103
-10 41 -3 86 -8 100 -10 14 -2 59 -6 100 -10 41 -3 82 -8 90 -10 8 -2 47 -7
85 -10 39 -3 84 -8 100 -10 17 -2 50 -6 75 -9 72 -9 143 -18 170 -21 14 -2 49
-7 78 -10 29 -4 63 -8 75 -11 11 -2 39 -6 62 -9 22 -4 51 -8 65 -10 14 -2 45
-7 70 -10 207 -28 567 -100 773 -154 81 -21 147 -37 147 -35 0 7 -328 148
-480 206 -321 122 -732 260 -980 328 -36 10 -113 32 -172 49 -59 17 -124 35
-145 40 -21 5 -128 32 -238 59 -110 28 -254 62 -320 77 -66 14 -136 30 -155
35 -30 7 -97 20 -385 75 -16 3 -122 22 -235 41 -113 19 -216 37 -230 39 -14 3
-50 7 -80 11 -30 3 -62 7 -70 9 -8 2 -39 7 -69 10 -30 4 -63 8 -73 10 -11 2
-46 7 -79 10 -33 4 -68 8 -77 10 -9 1 -46 6 -82 9 -36 4 -81 9 -100 11 -19 2
-64 7 -100 10 -36 3 -81 8 -100 10 -19 2 -71 7 -115 10 -44 3 -105 8 -135 10
-30 2 -100 7 -155 10 -55 4 -131 9 -170 11 -82 6 -1071 14 -1076 9z"/>
</g>
</svg>
